<mxfile host="app.diagrams.net" agent="Mozilla/5.0 (Windows NT 10.0; Win64; x64) AppleWebKit/537.36 (KHTML, like Gecko) Chrome/135.0.0.0 Safari/537.36" version="26.2.9">
  <diagram name="第 1 页" id="0TmF0YVXihSPzVpAYTjA">
    <mxGraphModel dx="426" dy="272" grid="1" gridSize="10" guides="1" tooltips="1" connect="1" arrows="1" fold="1" page="1" pageScale="1" pageWidth="827" pageHeight="1169" math="0" shadow="0">
      <root>
        <mxCell id="0" />
        <mxCell id="1" parent="0" />
        <mxCell id="8AmJ076S7RSMC-Uuk8X_-3" style="edgeStyle=orthogonalEdgeStyle;rounded=0;orthogonalLoop=1;jettySize=auto;html=1;exitX=0.5;exitY=1;exitDx=0;exitDy=0;" edge="1" parent="1" source="8AmJ076S7RSMC-Uuk8X_-1" target="8AmJ076S7RSMC-Uuk8X_-2">
          <mxGeometry relative="1" as="geometry" />
        </mxCell>
        <mxCell id="8AmJ076S7RSMC-Uuk8X_-5" style="edgeStyle=orthogonalEdgeStyle;rounded=0;orthogonalLoop=1;jettySize=auto;html=1;exitX=0.75;exitY=1;exitDx=0;exitDy=0;" edge="1" parent="1" source="8AmJ076S7RSMC-Uuk8X_-1" target="8AmJ076S7RSMC-Uuk8X_-4">
          <mxGeometry relative="1" as="geometry" />
        </mxCell>
        <mxCell id="8AmJ076S7RSMC-Uuk8X_-1" value="sssss" style="rounded=0;whiteSpace=wrap;html=1;" vertex="1" parent="1">
          <mxGeometry x="180" y="300" width="190" height="30" as="geometry" />
        </mxCell>
        <mxCell id="8AmJ076S7RSMC-Uuk8X_-2" value="" style="rounded=0;whiteSpace=wrap;html=1;" vertex="1" parent="1">
          <mxGeometry x="120" y="370" width="120" height="60" as="geometry" />
        </mxCell>
        <mxCell id="8AmJ076S7RSMC-Uuk8X_-4" value="" style="rounded=0;whiteSpace=wrap;html=1;" vertex="1" parent="1">
          <mxGeometry x="280" y="370" width="120" height="60" as="geometry" />
        </mxCell>
        <mxCell id="8AmJ076S7RSMC-Uuk8X_-7" value="" style="endArrow=classic;html=1;rounded=0;exitX=0.932;exitY=0.999;exitDx=0;exitDy=0;entryX=0.75;entryY=0;entryDx=0;entryDy=0;exitPerimeter=0;" edge="1" parent="1" source="8AmJ076S7RSMC-Uuk8X_-1" target="8AmJ076S7RSMC-Uuk8X_-4">
          <mxGeometry width="50" height="50" relative="1" as="geometry">
            <mxPoint x="380" y="360" as="sourcePoint" />
            <mxPoint x="430" y="310" as="targetPoint" />
          </mxGeometry>
        </mxCell>
      </root>
    </mxGraphModel>
  </diagram>
</mxfile>
